<?xml version="1.0" encoding="UTF-8" standalone="no"?>
<svg width="256px" height="256px" viewBox="0 0 256 256" version="1.1" xmlns="http://www.w3.org/2000/svg" xmlns:xlink="http://www.w3.org/1999/xlink" xmlns:sketch="http://www.bohemiancoding.com/sketch/ns">
    <!-- Generator: Sketch 3.5.1 (25234) - http://www.bohemiancoding.com/sketch -->
    <title>php</title>
    <desc>Created with Sketch.</desc>
    <defs></defs>
    <g id="Page-1" stroke="none" stroke-width="1" fill="none" fill-rule="evenodd" sketch:type="MSPage">
        <g id="php" sketch:type="MSLayerGroup">
            <rect id="back-copy" fill="#6082BC" sketch:type="MSShapeGroup" x="0" y="0" width="256" height="256"></rect>
            <g id="Group" transform="translate(30.000000, 78.614173)" fill="#FFFFFF" sketch:type="MSShapeGroup">
                <path d="M16.1950332,21.4616781 L45.0446184,21.4616781 C53.512834,21.5341447 59.6487511,23.9932825 63.4523697,28.8393576 C67.2558462,33.6855146 68.5117289,40.3037272 67.2200381,48.6939953 C66.7176079,52.5275228 65.6052419,56.2886859 63.8829604,59.9775052 C62.2322951,63.6663655 59.9358048,66.9935475 56.9935096,69.9590717 C53.4051863,73.7202349 49.5657596,76.1071312 45.4752091,77.1197607 C41.3845368,78.1323902 37.1504087,78.6386948 32.7727842,78.6386948 L19.855064,78.6386948 L15.7644425,99.2527994 L0.80141658,99.2527994 L16.1950332,21.4616781 L16.1950332,21.4616781 M28.7898205,33.8301409 L22.3309604,66.3787272 C22.7615105,66.4509892 23.1921011,66.4872225 23.6227324,66.4872225 L25.1297998,66.4872225 C32.0192099,66.5594845 37.7604054,65.8724227 42.3534267,64.425812 C46.9463262,62.9068985 50.0322396,57.6268013 51.6111262,48.5855 C52.9028373,40.9908708 51.6110653,36.6148874 47.7358102,35.4575702 C43.9322118,34.3003349 39.1598251,33.7578585 33.4186703,33.8301409 C32.5574483,33.9024028 31.7321563,33.9386362 30.9427739,33.9386362 C30.2250889,33.9386771 29.4715552,33.9386771 28.6821728,33.9386362 L28.7898205,33.8301409" id="Shape"></path>
                <path d="M84.2648887,0.739078089 L99.1202466,0.739078089 L94.9219673,21.4616781 L108.270298,21.4616781 C115.590279,21.6064067 121.0444,23.1253202 124.632744,26.0184802 C128.292704,28.9117424 129.369201,34.4088302 127.862215,42.5097639 L120.649841,78.6386948 L105.579168,78.6386948 L112.468618,44.1371932 C113.186161,40.5207177 112.970907,37.9530028 111.822732,36.4340278 C110.674436,34.9151347 108.19856,34.1556677 104.395003,34.1556267 L92.4460709,34.0471315 L83.6189621,78.6386948 L68.7636651,78.6386948 L84.2648481,0.739078089 L84.2648481,0.739078089" id="Shape"></path>
                <path d="M143.814401,21.4616781 L172.663976,21.4616781 C181.132151,21.5341447 187.268109,23.9932825 191.071707,28.8393576 C194.875183,33.6855146 196.131046,40.3037272 194.839355,48.6939953 C194.336925,52.5275228 193.224579,56.2886859 191.502277,59.9775052 C189.851612,63.6663655 187.555122,66.9935475 184.612827,69.9590717 C181.024524,73.7202349 177.185076,76.1071312 173.094546,77.1197607 C169.003894,78.1323902 164.769726,78.6386948 160.392121,78.6386948 L147.474381,78.6386948 L143.38377,99.2527994 L128.420764,99.2527994 L143.814401,21.4616781 L143.814401,21.4616781 M156.409137,33.8301409 L149.950277,66.3787272 C150.380848,66.4509892 150.811438,66.4872225 151.242049,66.4872225 L152.749117,66.4872225 C159.638527,66.5594845 165.379743,65.8724227 169.972744,64.425812 C174.565663,62.9068985 177.651556,57.6268013 179.230443,48.5855 C180.522154,40.9908708 179.230382,36.6148874 175.355127,35.4575702 C171.551529,34.3003349 166.779142,33.7578585 161.037987,33.8301409 C160.176765,33.9024028 159.351473,33.9386362 158.562091,33.9386362 C157.844406,33.9386771 157.090872,33.9386771 156.30149,33.9386362 L156.409137,33.8301409" id="Shape"></path>
            </g>
        </g>
    </g>
</svg>